HIERARCHY
ROOT Hips
{
	OFFSET 0.00000 0.00000 0.00000
	CHANNELS 6 Xposition Yposition Zposition Zrotation Yrotation Xrotation 
	JOINT LHipJoint
	{
		OFFSET 0 0 0
		CHANNELS 3 Zrotation Yrotation Xrotation
		JOINT LeftUpLeg
		{
			OFFSET 1.81638 -1.86202 0.89635
			CHANNELS 3 Zrotation Yrotation Xrotation
			JOINT LeftLeg
			{
				OFFSET 2.63464 -7.23861 0.00000
				CHANNELS 3 Zrotation Yrotation Xrotation
				JOINT LeftFoot
				{
					OFFSET 2.45871 -6.75336 0.00000
					CHANNELS 3 Zrotation Yrotation Xrotation
					JOINT LeftToeBase
					{
						OFFSET 0.34235 -0.94059 2.20020
						CHANNELS 3 Zrotation Yrotation Xrotation
						End Site
						{
							OFFSET 0.00000 -0.00000 1.18611
						}
					}
				}
			}
		}
	}
	JOINT RHipJoint
	{
		OFFSET 0 0 0
		CHANNELS 3 Zrotation Yrotation Xrotation
		JOINT RightUpLeg
		{
			OFFSET -1.84405 -1.86203 0.89635
			CHANNELS 3 Zrotation Yrotation Xrotation
			JOINT RightLeg
			{
				OFFSET -2.71067 -7.44751 0.00000
				CHANNELS 3 Zrotation Yrotation Xrotation
				JOINT RightFoot
				{
					OFFSET -2.47159 -6.79060 0.00000
					CHANNELS 3 Zrotation Yrotation Xrotation
					JOINT RightToeBase
					{
						OFFSET -0.26223 -0.72048 2.36007
						CHANNELS 3 Zrotation Yrotation Xrotation
						End Site
						{
							OFFSET -0.00000 -0.00000 1.23343
						}
					}
				}
			}
		}
	}
	JOINT LowerBack
	{
		OFFSET 0 0 0
		CHANNELS 3 Zrotation Yrotation Xrotation
		JOINT Spine
		{
			OFFSET 0.02089 1.99248 -0.22512
			CHANNELS 3 Zrotation Yrotation Xrotation
			JOINT Spine1
			{
				OFFSET 0.01476 2.01356 -0.03079
				CHANNELS 3 Zrotation Yrotation Xrotation
				JOINT Neck
				{
					OFFSET 0 0 0
					CHANNELS 3 Zrotation Yrotation Xrotation
					JOINT Neck1
					{
						OFFSET 0.04846 1.65098 0.06663
						CHANNELS 3 Zrotation Yrotation Xrotation
						JOINT Head
						{
							OFFSET -0.06061 1.60634 -0.07565
							CHANNELS 3 Zrotation Yrotation Xrotation
							End Site
							{
								OFFSET -0.02954 1.73562 -0.03642
							}
						}
					}
				}
				JOINT LeftShoulder
				{
					OFFSET 0 0 0
					CHANNELS 3 Zrotation Yrotation Xrotation
					JOINT LeftArm
					{
						OFFSET 3.45234 1.47051 -0.06993
						CHANNELS 3 Zrotation Yrotation Xrotation
						JOINT LeftForeArm
						{
							OFFSET 5.49313 -0.00000 0.00000
							CHANNELS 3 Zrotation Yrotation Xrotation
							JOINT LeftHand
							{
								OFFSET 3.29037 -0.00000 0.00000
								CHANNELS 3 Zrotation Yrotation Xrotation
								JOINT LeftFingerBase
								{
									OFFSET 0 0 0
									CHANNELS 3 Zrotation Yrotation Xrotation
									JOINT LeftHandIndex1
									{
										OFFSET 0.72966 -0.00000 0.00000
										CHANNELS 3 Zrotation Yrotation Xrotation
										End Site
										{
											OFFSET 0.58827 -0.00000 0.00000
										}
									}
								}
								JOINT LThumb
								{
									OFFSET 0 0 0
									CHANNELS 3 Zrotation Yrotation Xrotation
									End Site
									{
										OFFSET 0.59725 -0.00000 0.59725
									}
								}
							}
						}
					}
				}
				JOINT RightShoulder
				{
					OFFSET 0 0 0
					CHANNELS 3 Zrotation Yrotation Xrotation
					JOINT RightArm
					{
						OFFSET -3.41935 1.44327 0.20453
						CHANNELS 3 Zrotation Yrotation Xrotation
						JOINT RightForeArm
						{
							OFFSET -5.23684 -0.00000 0.00000
							CHANNELS 3 Zrotation Yrotation Xrotation
							JOINT RightHand
							{
								OFFSET -3.38251 -0.00000 0.00000
								CHANNELS 3 Zrotation Yrotation Xrotation
								JOINT RightFingerBase
								{
									OFFSET 0 0 0
									CHANNELS 3 Zrotation Yrotation Xrotation
									JOINT RightHandIndex1
									{
										OFFSET -0.69145 -0.00000 0.00000
										CHANNELS 3 Zrotation Yrotation Xrotation
										End Site
										{
											OFFSET -0.55747 -0.00000 0.00000
										}
									}
								}
								JOINT RThumb
								{
									OFFSET 0 0 0
									CHANNELS 3 Zrotation Yrotation Xrotation
									End Site
									{
										OFFSET -0.56598 -0.00000 0.56598
									}
								}
							}
						}
					}
				}
			}
		}
	}
}
MOTION
Frames: 16
Frame Time: .0083333
-30.6583 17.5891 -2.2746 0 0 0 0 0 0 -21 0 0 0 0 0 0 0 0 0 0 0 0 0 0 21 0 0 0 0 0 0 0 0 0 0 0 0 0 0 0 0 0 0 0 0 0 0 -16 0 0 21 0 0 11 0 0 0 -8 0 0 0 0 0 0 0 0 0 0 0 0 0 0 0 0 0 0 0 0 8 0 0 0 0 0 0 0 0 0 0 0 0 0 0 0 0 0
-30.6583 17.5891 -2.2746 -61.4857 85.1451 -61.6582 0.0000 0.0000 0.0000 -8.9644 -3.7697 -8.5529 2.7667 10.3075 29.9783 1.4447 -1.8325 -22.2061 0.0070 -0.5397 -1.4830 0.0000 0.0000 0.0000 21.2177 7.6191 -4.1594 -1.7199 -8.2566 23.4962 -0.5578 -8.0991 -19.3193 -0.3817 3.9679 -10.9864 -0.1457 -1.4931 13.8266 2.8667 -1.6313 5.2922 3.3242 -0.7273 -2.0842 -1.1740 1.9004 -3.4308 -1.9121 2.5977 -7.6246 -0.4149 1.4228 -1.7787 -0.0000 0.0000 0.0000 -85.2661 14.0468 21.8240 32.8270 -43.1967 -13.3035 -0.0000 0.0000 -1.4212 -1.1928 9.7874 -0.2028 -7.1250 0.0000 -0.0000 -24.0021 38.6022 4.0638 -0.0000 0.0000 0.0000 72.5809 -13.4105 38.1826 -33.9382 44.0389 -14.0701 0.0000 0.0000 3.2739 -6.6440 -12.0743 1.3958 7.1250 -0.0000 -0.0000 18.2087 -41.4118 1.6737
-30.6578 17.5857 -2.2765 -60.0876 85.1916 -60.2533 0.0000 0.0000 0.0000 -9.1751 -4.3125 -8.2958 2.7630 10.3012 29.9576 1.4565 -1.2100 -22.4652 0.0062 -0.5084 -1.3971 0.0000 0.0000 0.0000 21.0884 7.6373 -4.2811 -1.7465 -8.3169 23.6807 -0.5789 -7.9215 -19.3859 -0.3824 3.9711 -10.9955 -0.2681 -1.4528 13.7872 2.8416 -1.5967 5.3096 3.3604 -0.7120 -2.0439 -1.0839 1.8740 -3.3832 -1.9858 2.5556 -7.6657 -0.4536 1.4015 -1.7982 -0.0000 -0.0000 0.0000 -85.2522 13.9429 21.8699 32.8029 -43.1780 -13.2870 -0.0000 0.0000 -1.3798 -1.1750 9.8009 -0.2000 -7.1250 0.0000 -0.0000 -23.9921 38.6160 4.0531 -0.0000 -0.0000 0.0000 72.6045 -13.3619 38.1554 -33.9534 44.0502 -14.0807 0.0000 0.0000 3.3040 -6.6743 -12.0987 1.4050 7.1250 -0.0000 -0.0000 18.1901 -41.4379 1.6597
-30.6574 17.5822 -2.2770 -59.7197 85.1285 -59.8826 0.0000 0.0000 0.0000 -9.1342 -4.2106 -8.3573 2.7623 10.2999 29.9534 1.4500 -1.1344 -22.4350 0.0102 -0.6521 -1.7920 0.0000 0.0000 0.0000 21.1322 7.6660 -4.2758 -1.7443 -8.3117 23.6649 -0.5134 -8.2969 -19.0228 -0.5812 4.8814 -13.5707 -0.2678 -1.4300 13.7635 2.8556 -1.5661 5.3276 3.3693 -0.6970 -2.0137 -0.9991 1.8566 -3.3408 -2.0448 2.5266 -7.7050 -0.4869 1.3866 -1.8166 0.0000 -0.0000 0.0000 -85.2110 13.8508 21.9588 32.7860 -43.1649 -13.2755 -0.0000 0.0000 -1.3879 -1.1001 10.1171 -0.1933 -7.1250 0.0000 -0.0000 -24.0341 38.9110 3.8725 0.0000 -0.0000 0.0000 72.6345 -13.3435 38.1256 -33.9914 44.0783 -14.1071 0.0000 0.0000 3.2972 -6.7090 -12.0590 1.4078 7.1250 -0.0000 -0.0000 18.1486 -41.4032 1.6718
-30.6552 17.5885 -2.2782 -59.0456 85.1046 -59.2177 0.0000 0.0000 0.0000 -9.0589 -3.6252 -8.5184 2.7617 10.2989 29.9501 1.4689 -1.8127 -22.4025 0.0037 -0.3915 -1.0757 0.0000 0.0000 0.0000 21.1160 7.6615 -4.2801 -1.7473 -8.3185 23.6859 -0.5215 -8.1905 -19.0126 -0.5897 4.9167 -13.6711 -0.3084 -1.4091 13.7398 2.8585 -1.5438 5.3513 3.3909 -0.6867 -1.9761 -1.0047 1.8675 -3.3198 -2.0189 2.5420 -7.7218 -0.4784 1.3942 -1.8259 -0.0000 -0.0000 0.0000 -85.1866 13.7477 22.0245 32.7443 -43.1326 -13.2469 -0.0000 0.0000 -1.3614 -1.0385 10.3314 -0.1863 -7.1250 0.0000 -0.0000 -24.0545 39.1120 3.7475 -0.0000 -0.0000 0.0000 72.6644 -13.2954 38.0714 -34.0002 44.0849 -14.1132 0.0000 0.0000 3.3290 -6.6332 -12.0331 1.3888 7.1250 -0.0000 -0.0000 18.2055 -41.3714 1.6923
-30.6537 17.5865 -2.2782 -58.7543 85.0688 -58.9239 0.0000 0.0000 0.0000 -9.0861 -3.9401 -8.3739 2.7620 10.2994 29.9519 1.4597 -1.4161 -22.4334 0.0056 -0.4854 -1.3337 0.0000 0.0000 0.0000 21.1359 7.6589 -4.2806 -1.7448 -8.3128 23.6684 -0.5305 -8.1030 -19.0307 -0.5370 4.6953 -13.0415 -0.3220 -1.3946 13.7143 2.8630 -1.5267 5.3651 3.3997 -0.6786 -1.9484 -0.9270 1.8460 -3.3018 -2.0705 2.5086 -7.7202 -0.5074 1.3763 -1.8271 0.0000 0.0000 0.0000 -85.1401 13.7009 22.1064 32.7884 -43.1667 -13.2771 -0.0000 0.0000 -1.3401 -1.0483 10.0679 -0.1833 -7.1250 0.0000 -0.0000 -23.9763 38.8705 3.8876 0.0000 0.0000 0.0000 72.6901 -13.2848 38.0711 -34.0358 44.1112 -14.1380 0.0000 0.0000 3.3151 -6.6270 -12.0134 1.3853 7.1250 -0.0000 -0.0000 18.2050 -41.3521 1.7013
-30.6523 17.5868 -2.2787 -58.3079 85.0375 -58.4767 0.0000 0.0000 0.0000 -9.0772 -3.8912 -8.3742 2.7630 10.3011 29.9574 1.4620 -1.4244 -22.4493 0.0053 -0.4708 -1.2937 0.0000 0.0000 0.0000 21.1403 7.6535 -4.2709 -1.7393 -8.3005 23.6306 -0.5309 -8.0587 -18.9956 -0.5335 4.6805 -12.9995 -0.3443 -1.3773 13.6927 2.8656 -1.5069 5.3814 3.4113 -0.6694 -1.9202 -0.8763 1.8347 -3.2810 -2.0976 2.4905 -7.7317 -0.5246 1.3666 -1.8335 0.0000 0.0000 0.0000 -85.0976 13.6285 22.1888 32.8009 -43.1764 -13.2856 -0.0000 0.0000 -1.3344 -1.0173 9.9775 -0.1763 -7.1250 0.0000 -0.0000 -23.9219 38.7903 3.9285 0.0000 0.0000 0.0000 72.7155 -13.2634 38.0583 -34.0681 44.1351 -14.1605 0.0000 0.0000 3.3142 -6.6134 -11.9941 1.3802 7.1250 -0.0000 -0.0000 18.2108 -41.3324 1.7111
-30.6509 17.5873 -2.2791 -57.9536 85.0032 -58.1212 0.0000 0.0000 0.0000 -9.0566 -3.8196 -8.3868 2.7640 10.3029 29.9632 1.4637 -1.4602 -22.4527 0.0052 -0.4644 -1.2760 0.0000 0.0000 0.0000 21.1519 7.6530 -4.2760 -1.7390 -8.2999 23.6289 -0.5354 -8.0056 -18.9963 -0.5245 4.6413 -12.8882 -0.3577 -1.3633 13.6753 2.8688 -1.4902 5.3964 3.4190 -0.6614 -1.8957 -0.8310 1.8239 -3.2654 -2.1186 2.4736 -7.7398 -0.5389 1.3574 -1.8382 -0.0000 -0.0000 0.0000 -85.0486 13.5609 22.2782 32.8250 -43.1951 -13.3021 -0.0000 0.0000 -1.3417 -0.9958 9.8699 -0.1707 -7.1250 0.0000 -0.0000 -23.8699 38.6936 3.9800 -0.0000 -0.0000 0.0000 72.7400 -13.2486 38.0535 -34.1058 44.1629 -14.1867 0.0000 0.0000 3.3097 -6.6019 -11.9762 1.3758 7.1250 -0.0000 -0.0000 18.2153 -41.3142 1.7200
-30.6496 17.5879 -2.2795 -57.6561 84.9701 -57.8210 0.0000 0.0000 0.0000 -9.0363 -3.7676 -8.3932 2.7647 10.3041 29.9672 1.4656 -1.4824 -22.4622 0.0052 -0.4642 -1.2756 0.0000 0.0000 0.0000 21.1654 7.6479 -4.2764 -1.7367 -8.2947 23.6128 -0.5436 -7.9290 -19.0171 -0.4998 4.5325 -12.5797 -0.3654 -1.3523 13.6606 2.8706 -1.4766 5.4093 3.4226 -0.6549 -1.8747 -0.7936 1.8125 -3.2489 -2.1314 2.4566 -7.7492 -0.5494 1.3483 -1.8436 -0.0000 0.0000 0.0000 -84.9935 13.4989 22.3721 32.8616 -43.2234 -13.3272 -0.0000 0.0000 -1.3623 -0.9938 9.7616 -0.1685 -7.1250 0.0000 -0.0000 -23.8334 38.5946 4.0358 -0.0000 0.0000 0.0000 72.7632 -13.2407 38.0579 -34.1494 44.1951 -14.2171 0.0000 0.0000 3.3002 -6.5918 -11.9634 1.3722 7.1250 -0.0000 -0.0000 18.2201 -41.3011 1.7267
-30.6483 17.5881 -2.2796 -57.4005 84.9381 -57.5610 0.0000 0.0000 0.0000 -9.0206 -3.7555 -8.3893 2.7658 10.3059 29.9732 1.4672 -1.4602 -22.4802 0.0056 -0.4841 -1.3303 0.0000 0.0000 0.0000 21.1798 7.6436 -4.2781 -1.7345 -8.2898 23.5977 -0.5518 -7.8570 -19.0415 -0.4762 4.4254 -12.2768 -0.3679 -1.3437 13.6508 2.8703 -1.4657 5.4191 3.4217 -0.6497 -1.8599 -0.7602 1.8000 -3.2314 -2.1390 2.4384 -7.7600 -0.5575 1.3386 -1.8498 0.0000 -0.0000 0.0000 -84.9309 13.4449 22.4718 32.9096 -43.2604 -13.3601 -0.0000 0.0000 -1.3935 -0.9999 9.6745 -0.1680 -7.1250 0.0000 -0.0000 -23.8105 38.5144 4.0821 0.0000 -0.0000 0.0000 72.7852 -13.2420 38.0726 -34.1981 44.2310 -14.2511 0.0000 0.0000 3.2884 -6.5908 -11.9542 1.3709 7.1250 -0.0000 -0.0000 18.2182 -41.2922 1.7306
-30.6471 17.5884 -2.2796 -57.1974 84.9086 -57.3518 0.0000 0.0000 0.0000 -9.0044 -3.7483 -8.3886 2.7671 10.3082 29.9806 1.4689 -1.4357 -22.5004 0.0062 -0.5078 -1.3954 0.0000 0.0000 0.0000 21.1947 7.6395 -4.2833 -1.7330 -8.2862 23.5868 -0.5575 -7.8030 -19.0557 -0.4634 4.3664 -12.1097 -0.3627 -1.3396 13.6504 2.8659 -1.4599 5.4223 3.4132 -0.6467 -1.8569 -0.7331 1.7885 -3.2099 -2.1388 2.4218 -7.7715 -0.5623 1.3297 -1.8570 0.0000 -0.0000 0.0000 -84.8600 13.4046 22.5728 32.9678 -43.3053 -13.4000 -0.0000 0.0000 -1.4357 -1.0047 9.5963 -0.1675 -7.1250 0.0000 -0.0000 -23.7895 38.4425 4.1235 0.0000 -0.0000 0.0000 72.8085 -13.2559 38.0993 -34.2513 44.2701 -14.2882 0.0000 0.0000 3.2720 -6.5939 -11.9480 1.3709 7.1250 -0.0000 -0.0000 18.2137 -41.2867 1.7327
-30.6460 17.5884 -2.2795 -57.0087 84.8805 -57.1548 0.0000 0.0000 0.0000 -8.9940 -3.7819 -8.3738 2.7685 10.3105 29.9883 1.4699 -1.3669 -22.5269 0.0070 -0.5396 -1.4829 0.0000 0.0000 0.0000 21.2088 7.6389 -4.2920 -1.7322 -8.2845 23.5815 -0.5626 -7.7532 -19.0667 -0.4520 4.3132 -11.9596 -0.3458 -1.3419 13.6699 2.8540 -1.4612 5.4121 3.3920 -0.6470 -1.8789 -0.7151 1.7806 -3.1887 -2.1242 2.4111 -7.7725 -0.5610 1.3235 -1.8610 0.0000 -0.0000 0.0000 -84.7802 13.3899 22.6649 33.0389 -43.3599 -13.4488 -0.0000 0.0000 -1.4850 -1.0213 9.5546 -0.1695 -7.1250 0.0000 -0.0000 -23.7897 38.4030 4.1485 0.0000 -0.0000 0.0000 72.8335 -13.2895 38.1475 -34.3090 44.3123 -14.3285 0.0000 0.0000 3.2526 -6.6000 -11.9496 1.3724 7.1250 -0.0000 -0.0000 18.2090 -41.2887 1.7313
-30.6448 17.5882 -2.2792 -56.8460 84.8560 -56.9819 0.0000 0.0000 0.0000 -8.9903 -3.8524 -8.3470 2.7698 10.3127 29.9954 1.4697 -1.2562 -22.5557 0.0081 -0.5799 -1.5934 0.0000 0.0000 0.0000 21.2219 7.6429 -4.3033 -1.7321 -8.2842 23.5808 -0.5637 -7.7296 -19.0577 -0.4517 4.3116 -11.9549 -0.3234 -1.3488 13.7035 2.8363 -1.4682 5.3909 3.3631 -0.6499 -1.9200 -0.7022 1.7749 -3.1642 -2.1011 2.4035 -7.7675 -0.5561 1.3186 -1.8638 0.0000 -0.0000 0.0000 -84.6933 13.3977 22.7499 33.1195 -43.4217 -13.5041 -0.0000 0.0000 -1.5341 -1.0451 9.5476 -0.1734 -7.1250 0.0000 -0.0000 -23.8065 38.3947 4.1571 0.0000 -0.0000 0.0000 72.8611 -13.3395 38.2086 -34.3666 44.3545 -14.3688 0.0000 0.0000 3.2319 -6.6084 -11.9546 1.3747 7.1250 -0.0000 -0.0000 18.2033 -41.2942 1.7282
-30.6437 17.5881 -2.2786 -56.6999 84.8370 -56.8233 0.0000 0.0000 0.0000 -8.9890 -3.9218 -8.3236 2.7708 10.3144 30.0009 1.4693 -1.1499 -22.5824 0.0090 -0.6140 -1.6874 0.0000 0.0000 0.0000 21.2318 7.6506 -4.3178 -1.7328 -8.2858 23.5855 -0.5678 -7.6951 -19.0711 -0.4429 4.2701 -11.8377 -0.2976 -1.3603 13.7523 2.8129 -1.4809 5.3588 3.3276 -0.6555 -1.9805 -0.6960 1.7718 -3.1448 -2.0674 2.4001 -7.7475 -0.5466 1.3155 -1.8610 0.0000 -0.0000 0.0000 -84.6001 13.4283 22.8270 33.2097 -43.4906 -13.5662 -0.0000 0.0000 -1.5822 -1.0716 9.5444 -0.1777 -7.1250 0.0000 -0.0000 -23.8269 38.3896 4.1644 0.0000 -0.0000 0.0000 72.8905 -13.4058 38.2827 -34.4265 44.3983 -14.4107 0.0000 0.0000 3.2070 -6.6159 -11.9637 1.3773 7.1250 -0.0000 -0.0000 18.1997 -41.3037 1.7233
-30.6426 17.5879 -2.2777 -56.5414 84.8222 -56.6511 0.0000 0.0000 0.0000 -8.9917 -3.9916 -8.2993 2.7710 10.3148 30.0023 1.4681 -1.0467 -22.6025 0.0098 -0.6392 -1.7566 0.0000 0.0000 0.0000 21.2375 7.6617 -4.3346 -1.7340 -8.2886 23.5941 -0.5687 -7.6781 -19.0665 -0.4408 4.2599 -11.8089 -0.2713 -1.3736 13.8118 2.7846 -1.4963 5.3186 3.2878 -0.6623 -2.0554 -0.6925 1.7708 -3.1290 -2.0273 2.3999 -7.7145 -0.5345 1.3137 -1.8535 -0.0000 0.0000 0.0000 -84.5019 13.4767 22.9000 33.3071 -43.5648 -13.6333 -0.0000 0.0000 -1.6322 -1.1014 9.5527 -0.1828 -7.1250 0.0000 -0.0000 -23.8534 38.3948 4.1664 -0.0000 0.0000 0.0000 72.9204 -13.4859 38.3674 -34.4867 44.4421 -14.4528 0.0000 0.0000 3.1780 -6.6214 -11.9799 1.3803 7.1250 -0.0000 -0.0000 18.1998 -41.3196 1.7159
-30.6414 17.5877 -2.2765 -56.3574 84.8090 -56.4530 0.0000 0.0000 0.0000 -8.9963 -4.0593 -8.2732 2.7704 10.3137 29.9988 1.4662 -0.9400 -22.6180 0.0105 -0.6622 -1.8196 0.0000 0.0000 0.0000 21.2418 7.6769 -4.3516 -1.7357 -8.2923 23.6055 -0.5700 -7.6595 -19.0641 -0.4366 4.2399 -11.7526 -0.2497 -1.3855 13.8733 2.7555 -1.5104 5.2760 3.2496 -0.6686 -2.1338 -0.6854 1.7704 -3.1142 -1.9898 2.4002 -7.6759 -0.5237 1.3120 -1.8439 0.0000 0.0000 0.0000 -84.4019 13.5334 22.9734 33.4089 -43.6419 -13.7034 -0.0000 0.0000 -1.6797 -1.1303 9.5750 -0.1880 -7.1250 0.0000 -0.0000 -23.8838 38.4130 4.1610 0.0000 0.0000 0.0000 72.9493 -13.5718 38.4539 -34.5439 44.4837 -14.4929 0.0000 0.0000 3.1496 -6.6246 -11.9984 1.3831 7.1250 -0.0000 -0.0000 18.2026 -41.3376 1.7078
